<?xml version="1.0" encoding="UTF-8"?>
<svg id="Capa_1" xmlns="http://www.w3.org/2000/svg" version="1.1" xmlns:xlink="http://www.w3.org/1999/xlink" viewBox="0 0 1504 1446.89">
  <!-- Generator: Adobe Illustrator 29.5.0, SVG Export Plug-In . SVG Version: 2.1.0 Build 137)  -->
  <defs>
    <style>
      .st0 {
        fill: #fff;
      }

      .st1 {
        fill: none;
      }

      .st2 {
        clip-path: url(#clippath-1);
      }

      .st3 {
        fill: #e54f46;
      }

      .st4 {
        clip-path: url(#clippath-2);
      }

      .st5 {
        clip-path: url(#clippath);
      }
    </style>
    <clipPath id="clippath">
      <rect class="st1" x="11.56" y="10.34" width="1485" height="1429.17"/>
    </clipPath>
    <clipPath id="clippath-1">
      <rect class="st1" x="11.56" y="10.34" width="1484.72" height="1429.17" rx="29.99" ry="29.99"/>
    </clipPath>
    <clipPath id="clippath-2">
      <rect class="st1" x="311.11" y="376.33" width="886.17" height="696"/>
    </clipPath>
  </defs>
  <g id="_x34_025b4d590">
    <g class="st5">
      <g class="st2">
        <path class="st3" d="M11.56,10.34h1485v1429.17H11.56V10.34Z"/>
      </g>
    </g>
    <g class="st4">
      <path class="st0" d="M1151.67,1002.75c-259.54,91.31-535.41,91.31-794.94,0-26.99-9.49-45.09-34.94-45.09-63.55v-430.34c0-28.6,18.1-54.06,45.09-63.55,259.53-91.31,535.41-91.31,794.94,0,26.99,9.48,45.09,34.94,45.09,63.55v430.34c0,28.61-18.1,54.06-45.09,63.55"/>
    </g>
    <path class="st3" d="M596.25,890.95v-333.83c0-14.92,16.4-24.02,29.06-16.13l267.7,166.92c11.93,7.44,11.93,24.81,0,32.25l-267.7,166.92c-12.66,7.9-29.06-1.2-29.06-16.13"/>
  </g>
</svg>