<?xml version="1.0" encoding="UTF-8"?>
<svg id="Capa_1" xmlns="http://www.w3.org/2000/svg" version="1.1" xmlns:xlink="http://www.w3.org/1999/xlink" viewBox="0 0 1504 1424.93">
  <!-- Generator: Adobe Illustrator 29.5.0, SVG Export Plug-In . SVG Version: 2.1.0 Build 137)  -->
  <defs>
    <style>
      .st0 {
        fill: #f5604b;
      }

      .st1 {
        fill: #fff;
      }

      .st2 {
        fill: none;
      }

      .st3 {
        fill: #cbc9ca;
      }

      .st4 {
        clip-path: url(#clippath-1);
      }

      .st5 {
        clip-path: url(#clippath-2);
      }

      .st6 {
        clip-path: url(#clippath);
      }
    </style>
    <clipPath id="clippath">
      <rect class="st2" x="12.5" y="11.34" width="1479.5" height="1403.51"/>
    </clipPath>
    <clipPath id="clippath-1">
      <rect class="st2" x="12.5" y="11.34" width="1479" height="1403.51" rx="29.99" ry="29.99"/>
    </clipPath>
    <clipPath id="clippath-2">
      <rect class="st2" x="382.67" y="408.91" width="576" height="599.09"/>
    </clipPath>
  </defs>
  <g class="st6">
    <g class="st4">
      <path class="st3" d="M12.5,11.34h1480.27v1403.51H12.5V11.34Z"/>
    </g>
  </g>
  <rect class="st2" x="202.96" y="178.09" width="1071.7" height="1071.79"/>
  <path class="st0" d="M1274.53,713.98c0,295.9-239.99,535.44-535.44,535.44S203.19,1009.89,203.19,713.98,443.18,178.54,738.63,178.54s535.9,239.99,535.9,535.44Z"/>
  <g class="st5">
    <path class="st1" d="M957.69,408.91l-397.45,91.93v344.98c-23.67-10.66-54.05-13.51-85.16-6.06-60.58,14.64-100.92,62.92-90.14,107.84,10.78,44.99,68.64,69.59,129.2,55.07,53.06-12.77,90.57-51.38,91.85-90.97h.04v-280.32l305.89-70.72v230.1c-23.68-10.63-54.08-13.51-85.19-5.99-60.58,14.56-100.92,62.81-90.12,107.81,10.79,44.92,68.63,69.56,129.2,54.96,48.78-11.71,84.41-45.29,90.82-81.42h1.08l-.02-457.2h0Z"/>
  </g>
</svg>