<?xml version="1.0" encoding="UTF-8"?>
<svg id="Capa_1" xmlns="http://www.w3.org/2000/svg" version="1.1" xmlns:xlink="http://www.w3.org/1999/xlink" viewBox="0 0 1504 1449.89">
  <!-- Generator: Adobe Illustrator 29.5.0, SVG Export Plug-In . SVG Version: 2.1.0 Build 137)  -->
  <defs>
    <style>
      .st0 {
        fill: #fff;
      }

      .st1 {
        fill: none;
      }

      .st2 {
        clip-path: url(#clippath-1);
      }

      .st3 {
        fill: #883b8b;
      }

      .st4 {
        clip-path: url(#clippath);
      }
    </style>
    <clipPath id="clippath">
      <rect class="st1" x="12.83" y="15.11" width="1479.17" height="1422.38"/>
    </clipPath>
    <clipPath id="clippath-1">
      <path class="st1" d="M42.82,15.11h1418.35c7.96,0,15.58,3.16,21.21,8.79,5.62,5.62,8.78,13.26,8.78,21.21v1362.39c0,7.96-3.16,15.59-8.78,21.21-5.63,5.62-13.26,8.78-21.21,8.78H42.82c-7.96,0-15.58-3.16-21.21-8.78-5.62-5.62-8.78-13.26-8.78-21.21V45.11c0-7.95,3.16-15.58,8.78-21.21,5.63-5.62,13.26-8.79,21.21-8.79Z"/>
    </clipPath>
  </defs>
  <g id="_x30_d23ec0794">
    <g class="st4">
      <g class="st2">
        <path class="st3" d="M12.83,15.11h1477.94v1422.38H12.83V15.11Z"/>
      </g>
    </g>
    <path class="st0" d="M683.62,897.58c0-7.44-1.36-15.02-3.95-21.92-9.23-25.35-33.42-42.28-60.24-42.28-35.5,0-64.38,28.8-64.38,64.19,0,15.12,5.19,29.67,14.6,40.96,12.36,14.9,30.48,23.42,49.78,23.42,35.4,0,64.2-28.88,64.2-64.38Z"/>
    <path class="st0" d="M572.54,628.08h-45.58c-10.1,0-18.29-8.19-18.29-18.29v-45.58c0-17.23-14.03-31.27-31.27-31.27s-31.27,14.03-31.27,31.27v45.58c0,10.1-8.19,18.29-18.29,18.29h-45.57c-17.24,0-31.28,14.03-31.28,31.27s14.03,31.27,31.28,31.27h45.57c10.1,0,18.29,8.19,18.29,18.29v45.58c0,17.24,14.03,31.27,31.27,31.27s31.27-14.03,31.27-31.27v-45.58c0-10.1,8.19-18.29,18.29-18.29h45.58c17.23,0,31.27-14.03,31.27-31.27s-14.03-31.27-31.27-31.27Z"/>
    <path class="st0" d="M914.84,926.45c4.61-9.07,6.9-18.71,6.9-28.86,0-35.39-28.8-64.19-64.2-64.19-27.01,0-50.66,16.33-60.27,41.62-2.74,7.07-4.11,14.63-4.11,22.57,0,35.5,28.88,64.38,64.38,64.38,24.54,0,46.5-13.61,57.3-35.52Z"/>
    <path class="st0" d="M1179.55,485.34c-61.26-64.47-146.21-83.18-162.62-86.27-26.02-5.25-47.88-8.69-74.69-2.05-25.73,6.28-37.73,17.58-52.92,31.89-13.54,12.74-28.89,27.2-55.25,39.97h0c.12,0-3.8,1.96-10.05,4.5-47.86,18.68-100.31,18.69-147.96.1-6.23-2.45-9.4-4-11.19-5.04-25.96-12.7-41.17-27.01-54.6-39.65-15.15-14.25-27.12-25.51-52.61-31.77-27.04-6.6-48.9-3.19-74.72,2-16.6,3.18-101.66,22.13-162.63,86.3-20.6,21.44-36.84,58.28-73.93,363.43-11.69,96.66-16.22,148.89,17.55,187.48,9,9.8,34.22,33.43,71.05,37.78,70.07,8.34,138.22-62.23,178.93-104.45,7-7.34,13.16-14.2,18.59-20.44-.16-.27-.27-.57-.43-.84-.59-1.02-1.03-2.1-1.58-3.15-1.93-3.61-3.65-7.32-5.12-11.15-.62-1.61-1.16-3.24-1.69-4.89-1.17-3.57-2.11-7.2-2.88-10.9-.33-1.58-.71-3.13-.96-4.73-.83-5.23-1.38-10.53-1.38-15.9,0-55.56,45.29-100.77,100.96-100.77,5,0,9.93.43,14.78,1.16,1.59.24,3.12.67,4.69.99,3.22.64,6.42,1.32,9.54,2.27,1.8.55,3.53,1.25,5.3,1.9,2.78,1.02,5.53,2.07,8.2,3.33,1.78.84,3.5,1.77,5.23,2.71,2.52,1.36,4.97,2.8,7.37,4.38,1.66,1.09,3.28,2.22,4.87,3.41,2.3,1.71,4.49,3.53,6.64,5.43,1.47,1.3,2.93,2.59,4.33,3.98,2.09,2.08,4.04,4.31,5.95,6.58,1.21,1.43,2.45,2.81,3.58,4.31,1.96,2.61,3.69,5.39,5.4,8.2.83,1.36,1.76,2.65,2.53,4.06.15.27.34.51.49.79,6.28-.19,12.71-.14,19.4.13l40.63-.02c.24-.45.56-.85.8-1.3.99-1.81,2.14-3.48,3.22-5.22,1.5-2.39,3-4.75,4.68-6.98,1.29-1.72,2.69-3.33,4.08-4.95,1.74-2.03,3.51-4.02,5.39-5.89,1.52-1.52,3.09-2.95,4.71-4.35,2.01-1.76,4.06-3.42,6.19-5,1.69-1.25,3.39-2.46,5.16-3.6,2.29-1.48,4.65-2.83,7.05-4.12,1.79-.96,3.56-1.93,5.41-2.78,2.61-1.21,5.31-2.21,8.03-3.19,1.8-.65,3.56-1.36,5.4-1.91,3.09-.92,6.27-1.56,9.46-2.18,1.6-.31,3.15-.75,4.77-.98,4.86-.71,9.81-1.13,14.85-1.13,55.57,0,100.78,45.21,100.78,100.77,0,5.24-.53,10.36-1.31,15.43-.2,1.3-.43,2.58-.68,3.87-.91,4.67-2.07,9.28-3.65,13.76-.1.29-.13.59-.23.88,9.01,10.99,19.24,23.43,33.32,38.06,43.81,45.26,109.26,112.91,179.05,104.45,40.99-4.83,67.97-34.42,70.91-37.78.01-.01.02-.02.03-.03,33.91-38.59,29.39-90.81,17.71-187.46-40.04-327.87-57.26-345.93-73.92-363.41ZM572.54,727.19h-27.29v27.29c0,37.41-30.43,67.84-67.84,67.84s-67.85-30.43-67.85-67.84v-27.29h-27.28c-37.42,0-67.85-30.44-67.85-67.84s30.43-67.84,67.85-67.84h27.28v-27.29c0-37.41,30.43-67.84,67.85-67.84s67.84,30.43,67.84,67.84v27.29h27.29c37.41,0,67.84,30.43,67.84,67.84s-30.43,67.84-67.84,67.84ZM1014.99,773.02c-69.29,0-125.67-56.37-125.67-125.66s56.38-125.67,125.67-125.67,125.67,56.38,125.67,125.67-56.38,125.66-125.67,125.66Z"/>
    <path class="st0" d="M1014.99,558.27c-49.13,0-89.09,39.96-89.09,89.09s39.96,89.08,89.09,89.08,89.09-39.96,89.09-89.08-39.96-89.09-89.09-89.09Z"/>
  </g>
</svg>