<?xml version="1.0" encoding="UTF-8"?>
<svg id="Capa_1" xmlns="http://www.w3.org/2000/svg" version="1.1" xmlns:xlink="http://www.w3.org/1999/xlink" viewBox="0 0 1518.83 1466.45">
  <!-- Generator: Adobe Illustrator 29.5.0, SVG Export Plug-In . SVG Version: 2.1.0 Build 137)  -->
  <defs>
    <style>
      .st0 {
        fill: #863c89;
      }

      .st1 {
        fill: #4d4d4d;
      }

      .st2 {
        fill: #fff;
      }

      .st3 {
        fill: none;
      }

      .st4 {
        fill: #888;
      }

      .st5 {
        fill: #9d9d9d;
      }

      .st6 {
        clip-path: url(#clippath);
      }
    </style>
    <clipPath id="clippath">
      <path class="st3" d="M760.79,26.73h709.17c7.96,0,15.58,3.16,21.21,8.79s8.78,13.26,8.78,21.21v1362.39c0,7.96-3.16,15.59-8.78,21.21-5.63,5.62-13.26,8.78-21.21,8.78h-709.17V26.73Z"/>
    </clipPath>
  </defs>
  <rect class="st5" x="21.82" y="26.73" width="1477.94" height="1422.38" rx="33.42" ry="33.42"/>
  <path class="st4" d="M760.79,762.89H21.89V60.19c0-15.56,10.68-33.46,34.24-33.46h704.67v736.16h-.01Z"/>
  <g>
    <path class="st1" d="M760.79,26.73h709.17c7.96,0,15.58,3.16,21.21,8.79s8.78,13.26,8.78,21.21v1362.39c0,7.96-3.16,15.59-8.78,21.21-5.63,5.62-13.26,8.78-21.21,8.78h-709.17V26.73Z"/>
    <g class="st6">
      <path class="st0" d="M760.79,762.89h738.77v686.22h-738.77v-686.22Z"/>
    </g>
  </g>
  <path class="st2" d="M592.43,312.23c2.17,2.18,3.26,4.9,3.26,8.16v111.99c0,3.26-1.09,5.98-3.26,8.15s-4.9,3.27-8.16,3.27h-120.69c-3.26,0-4.89,1.63-4.89,4.89v119.6c0,3.27-1.09,5.98-3.27,8.16-2.17,2.18-4.89,3.26-8.15,3.26h-110.91c-3.27,0-5.98-1.08-8.16-3.26-2.18-2.17-3.27-4.89-3.27-8.16v-119.6c0-3.26-1.63-4.89-4.89-4.89h-121.78c-3.26,0-5.98-1.09-8.15-3.27-2.18-2.17-3.27-4.89-3.27-8.15v-111.99c0-3.26,1.09-5.98,3.27-8.16s4.89-3.26,8.15-3.26h121.78c3.26,0,4.89-1.63,4.89-4.9v-121.78c0-3.27,1.09-5.98,3.27-8.16s4.89-3.26,8.16-3.26h111.45c3.26,0,5.98,1.09,8.16,3.26,2.17,2.18,3.26,4.89,3.26,8.16v121.78c0,3.27,1.63,4.9,4.89,4.9h120.69c2.72,0,5.44,1.09,7.61,3.26h0Z"/>
  <path class="st2" d="M960.48,439.45c-2.18-2.18-3.26-4.9-3.26-8.16v-111.99c0-3.26,1.08-5.98,3.26-8.16,2.18-2.17,4.89-3.26,8.16-3.26h323.47c3.27,0,5.98,1.09,8.16,3.26s3.26,4.9,3.26,8.16v111.99c0,3.26-1.08,5.98-3.26,8.16s-4.89,3.26-8.16,3.26h-323.47c-3.27,0-5.98-1.09-8.16-3.26Z"/>
  <path class="st2" d="M894.75,1345.06c-1.09-2.72-.54-5.98,1.63-9.79l152.22-229.43c1.09-1.63,1.09-3.8,0-5.44l-152.22-228.33c-1.09-1.63-1.63-4.35-1.63-6.53,0-4.89,2.72-7.61,8.7-7.61h145.7c5.43,0,10.33,2.72,13.05,7.61l72.31,113.08c1.08,1.63,2.72,2.72,3.8,2.72s2.18-1.09,2.72-2.72l72.31-113.08c3.26-4.89,7.61-7.61,13.05-7.61h155.49c4.35,0,7.07,1.63,8.7,4.35,1.09,2.72.54,5.98-1.63,9.79l-152.22,228.34c-.55,1.63-.55,3.8,0,5.43l152.22,229.43c1.08,2.17,1.63,4.35,1.63,6.52,0,4.9-2.72,7.61-8.7,7.61h-145.7c-5.44,0-10.33-2.72-13.05-7.61l-72.31-113.08c-.54-1.63-1.63-2.72-2.72-2.72s-2.72,1.09-3.8,2.72l-72.31,113.08c-3.27,4.9-7.61,7.61-13.05,7.61h-155.48c-4.35,0-7.07-1.63-8.7-4.35h-.01Z"/>
  <path class="st2" d="M332.56,1009.08c-15.77-15.77-23.38-35.34-23.38-59.26s7.61-44.58,23.38-59.81c15.77-15.22,35.34-22.83,59.26-22.83s43.49,7.61,58.71,22.83,22.83,35.34,22.83,59.81-7.61,44.04-23.38,59.26c-15.77,15.77-34.79,23.38-58.71,23.38s-43.49-7.61-58.71-23.38h0Z"/>
  <path class="st2" d="M332.56,1317.33c-15.77-15.77-23.38-35.34-23.38-59.26s7.61-44.58,23.38-59.8,35.34-22.83,59.26-22.83,43.49,7.61,58.71,22.83,22.83,35.34,22.83,59.8-7.61,44.04-23.38,59.26c-15.77,15.77-34.79,23.38-58.71,23.38s-43.49-8.16-58.71-23.38h0Z"/>
</svg>