<?xml version="1.0" encoding="UTF-8"?>
<svg id="Capa_1" xmlns="http://www.w3.org/2000/svg" version="1.1" xmlns:xlink="http://www.w3.org/1999/xlink" viewBox="0 0 1504 1427.96">
  <!-- Generator: Adobe Illustrator 29.5.0, SVG Export Plug-In . SVG Version: 2.1.0 Build 137)  -->
  <defs>
    <style>
      .st0 {
        fill: #fff;
      }

      .st1 {
        fill: none;
      }

      .st2 {
        clip-path: url(#clippath-1);
      }

      .st3 {
        fill: #883b8b;
      }

      .st4 {
        clip-path: url(#clippath-2);
      }

      .st5 {
        clip-path: url(#clippath);
      }
    </style>
    <clipPath id="clippath">
      <rect class="st1" x="11.18" y="12.56" width="1482.16" height="1406.02"/>
    </clipPath>
    <clipPath id="clippath-1">
      <path class="st1" d="M41.17,12.56h1421.66c7.95,0,15.58,3.16,21.21,8.79s8.79,13.26,8.79,21.21v1346.03c0,7.95-3.16,15.58-8.79,21.21s-13.26,8.79-21.21,8.79H41.17c-7.95,0-15.58-3.16-21.21-8.79-5.63-5.62-8.79-13.26-8.79-21.21V42.55c0-7.95,3.16-15.58,8.79-21.21,5.62-5.62,13.26-8.79,21.21-8.79Z"/>
    </clipPath>
    <clipPath id="clippath-2">
      <rect class="st1" x="300.76" y="343.4" width="882.85" height="709.6"/>
    </clipPath>
  </defs>
  <g id="_x34_71b7ace4d">
    <g class="st5">
      <g class="st2">
        <path class="st3" d="M11.18,12.56h1482.91v1406.02H11.18V12.56Z"/>
      </g>
    </g>
    <path class="st0" d="M742.21,626.16c-64.81,0-117.54,52.73-117.54,117.55,0,8.13-6.59,14.71-14.71,14.71s-14.71-6.58-14.71-14.71c0-81.04,65.93-146.97,146.97-146.97,8.12,0,14.71,6.59,14.71,14.71s-6.59,14.71-14.71,14.71ZM742.21,562.31c-100.18,0-181.4,81.21-181.4,181.4s81.21,181.39,181.4,181.39,181.4-81.22,181.4-181.39-81.22-181.4-181.4-181.4"/>
    <g class="st4">
      <path class="st0" d="M1107.46,597c0,12.08-9.79,21.87-21.88,21.87h-105.67c-12.08,0-21.88-9.79-21.88-21.87v-47.24c0-12.08,9.8-21.88,21.88-21.88h105.67c12.08,0,21.88,9.8,21.88,21.88v47.24ZM742.21,959.53c-119.19,0-215.83-96.63-215.83-215.82s96.64-215.83,215.83-215.83,215.83,96.64,215.83,215.83-96.63,215.82-215.83,215.82ZM1074.24,447.55h-132.13l-18.14-68.88c-5.12-19.47-25.6-35.27-45.75-35.27h-272.02c-20.14,0-40.63,15.79-45.76,35.27l-18.14,68.88h-132.14c-60.42,0-109.4,48.98-109.4,109.4v386.54c0,60.41,48.98,109.39,109.4,109.39h664.07c60.43,0,109.41-48.97,109.41-109.39v-386.54c0-60.42-48.98-109.4-109.41-109.4"/>
    </g>
  </g>
</svg>