<?xml version="1.0" encoding="UTF-8"?>
<svg id="Capa_1" xmlns="http://www.w3.org/2000/svg" version="1.1" xmlns:xlink="http://www.w3.org/1999/xlink" viewBox="0 0 1504 1422.89">
  <!-- Generator: Adobe Illustrator 29.5.0, SVG Export Plug-In . SVG Version: 2.1.0 Build 137)  -->
  <defs>
    <style>
      .st0 {
        fill: #fff;
      }

      .st1 {
        fill: none;
      }

      .st2 {
        clip-path: url(#clippath-1);
      }

      .st3 {
        fill: #e54f46;
      }

      .st4 {
        fill: #888;
      }

      .st5 {
        clip-path: url(#clippath-2);
      }

      .st6 {
        clip-path: url(#clippath);
      }
    </style>
    <clipPath id="clippath">
      <rect class="st1" x="11.62" y="7.56" width="1481.71" height="1405.19"/>
    </clipPath>
    <clipPath id="clippath-1">
      <path class="st1" d="M41.61,7.56h1420.77c7.96,0,15.59,3.16,21.21,8.79s8.78,13.26,8.78,21.21v1345.2c0,7.95-3.16,15.58-8.78,21.21s-13.26,8.79-21.21,8.79H41.61c-7.96,0-15.59-3.16-21.21-8.79-5.63-5.62-8.78-13.26-8.78-21.21V37.55c0-7.95,3.16-15.58,8.78-21.21,5.62-5.62,13.26-8.79,21.21-8.79Z"/>
    </clipPath>
    <clipPath id="clippath-2">
      <rect class="st1" x="242.31" y="204.08" width="1011.83" height="1011.83"/>
    </clipPath>
  </defs>
  <g id="_x37_90688b3da">
    <g class="st6">
      <g class="st2">
        <path class="st4" d="M11.62,7.56h1482.03v1405.19H11.62V7.56Z"/>
      </g>
    </g>
    <g class="st5">
      <path class="st0" d="M1254.14,710c0,8.28-.2,16.55-.61,24.82s-1.02,16.53-1.83,24.77-1.82,16.45-3.04,24.65c-1.22,8.19-2.63,16.34-4.24,24.46-1.62,8.12-3.43,16.2-5.44,24.23s-4.22,16.01-6.63,23.93c-2.4,7.92-5,15.78-7.79,23.58-2.79,7.8-5.77,15.52-8.94,23.17s-6.52,15.22-10.06,22.7-7.26,14.88-11.17,22.18c-3.9,7.3-7.98,14.51-12.24,21.61-4.26,7.1-8.68,14.09-13.28,20.98-4.6,6.88-9.37,13.65-14.3,20.3-4.93,6.65-10.02,13.17-15.28,19.57-5.25,6.4-10.66,12.67-16.22,18.8-5.56,6.14-11.27,12.13-17.12,17.98s-11.85,11.56-17.98,17.13c-6.14,5.56-12.41,10.96-18.8,16.22-6.4,5.25-12.93,10.34-19.58,15.28s-13.42,9.7-20.3,14.3-13.88,9.03-20.98,13.29-14.3,8.34-21.6,12.24-14.7,7.63-22.18,11.16c-7.48,3.54-15.05,6.9-22.7,10.07-7.65,3.17-15.38,6.15-23.17,8.93-7.79,2.79-15.65,5.39-23.58,7.79-7.92,2.4-15.9,4.61-23.93,6.63-8.03,2.01-16.1,3.82-24.22,5.44-8.13,1.61-16.28,3.03-24.47,4.24-8.19,1.21-16.41,2.23-24.65,3.04s-16.49,1.42-24.76,1.83c-8.27.41-16.55.61-24.83.61s-16.55-.2-24.82-.61-16.53-1.02-24.77-1.83-16.45-1.83-24.64-3.04c-8.19-1.21-16.35-2.63-24.47-4.24s-16.2-3.43-24.23-5.44c-8.03-2.02-16.01-4.22-23.93-6.63-7.92-2.41-15.78-5-23.58-7.79-7.8-2.79-15.52-5.77-23.17-8.93-7.65-3.17-15.22-6.53-22.7-10.07-7.48-3.54-14.88-7.26-22.18-11.16s-14.51-7.98-21.6-12.24c-7.1-4.26-14.1-8.69-20.98-13.29-6.89-4.6-13.66-9.36-20.3-14.3-6.65-4.93-13.18-10.03-19.58-15.28-6.4-5.26-12.67-10.66-18.8-16.22-6.14-5.56-12.13-11.27-17.98-17.13s-11.56-11.85-17.13-17.98c-5.56-6.14-10.96-12.4-16.22-18.8-5.25-6.4-10.34-12.93-15.28-19.57-4.93-6.65-9.7-13.42-14.3-20.3-4.6-6.89-9.03-13.88-13.29-20.98-4.26-7.1-8.33-14.31-12.24-21.61-3.9-7.3-7.63-14.69-11.16-22.18-3.54-7.48-6.9-15.05-10.06-22.7-3.17-7.65-6.15-15.37-8.94-23.17-2.79-7.8-5.39-15.66-7.79-23.58-2.4-7.92-4.61-15.9-6.62-23.93-2.02-8.03-3.83-16.11-5.44-24.23s-3.03-16.28-4.24-24.46c-1.21-8.19-2.23-16.41-3.04-24.65s-1.42-16.49-1.82-24.77-.61-16.54-.61-24.82.2-16.56.61-24.82c.41-8.27,1.01-16.53,1.82-24.77s1.83-16.45,3.04-24.65c1.21-8.19,2.63-16.34,4.24-24.46,1.61-8.13,3.43-16.2,5.44-24.23,2.01-8.03,4.22-16.01,6.62-23.93,2.41-7.92,5-15.78,7.79-23.58,2.79-7.8,5.77-15.52,8.94-23.17,3.17-7.65,6.52-15.22,10.06-22.7,3.54-7.48,7.26-14.88,11.16-22.18,3.91-7.3,7.98-14.5,12.24-21.6,4.26-7.1,8.69-14.09,13.29-20.98s9.36-13.65,14.3-20.3,10.03-13.18,15.28-19.57c5.26-6.4,10.66-12.67,16.22-18.81,5.56-6.13,11.27-12.13,17.13-17.98,5.85-5.86,11.85-11.56,17.98-17.13s12.4-10.97,18.8-16.22c6.4-5.26,12.93-10.34,19.58-15.28,6.65-4.93,13.42-9.7,20.3-14.3,6.88-4.6,13.88-9.03,20.98-13.28,7.1-4.26,14.3-8.34,21.6-12.24,7.3-3.91,14.69-7.63,22.18-11.17,7.48-3.54,15.05-6.89,22.7-10.06,7.65-3.17,15.37-6.15,23.17-8.94,7.8-2.79,15.66-5.39,23.58-7.79,7.93-2.41,15.9-4.61,23.93-6.63s16.11-3.82,24.23-5.44c8.12-1.62,16.28-3.03,24.47-4.25,8.19-1.21,16.4-2.22,24.64-3.04s16.49-1.42,24.77-1.83,16.55-.61,24.82-.61,16.56.2,24.83.61c8.27.41,16.52,1.02,24.76,1.83s16.46,1.82,24.65,3.04c8.19,1.22,16.34,2.63,24.47,4.25,8.12,1.61,16.19,3.43,24.22,5.44s16.01,4.22,23.93,6.63c7.93,2.4,15.79,5,23.58,7.79,7.8,2.79,15.52,5.77,23.17,8.94,7.65,3.17,15.21,6.53,22.7,10.06,7.48,3.54,14.88,7.26,22.18,11.17,7.3,3.9,14.5,7.98,21.6,12.24s14.09,8.68,20.98,13.28c6.89,4.6,13.65,9.37,20.3,14.3s13.18,10.02,19.58,15.28c6.4,5.25,12.67,10.66,18.8,16.22s12.13,11.27,17.98,17.13c5.85,5.85,11.56,11.85,17.12,17.98,5.56,6.14,10.97,12.41,16.22,18.81,5.26,6.4,10.34,12.92,15.28,19.57s9.7,13.42,14.3,20.3,9.03,13.88,13.28,20.98c4.26,7.1,8.34,14.3,12.24,21.6,3.91,7.3,7.63,14.7,11.17,22.18s6.9,15.05,10.06,22.7c3.17,7.65,6.15,15.37,8.94,23.17,2.79,7.8,5.39,15.66,7.79,23.58,2.41,7.92,4.61,15.9,6.63,23.93s3.82,16.1,5.44,24.23c1.61,8.12,3.03,16.28,4.24,24.46,1.21,8.19,2.22,16.41,3.04,24.65s1.42,16.49,1.83,24.77c.41,8.27.61,16.54.61,24.82Z"/>
    </g>
    <path class="st3" d="M748.22,372.6c-4.33,0-8.66.14-12.97.41-4.32.27-8.64.66-12.93,1.19-4.3.53-8.58,1.18-12.83,1.97-4.26.79-8.49,1.7-12.69,2.73-4.2,1.04-8.37,2.21-12.51,3.5-4.13,1.29-8.22,2.7-12.27,4.24-4.05,1.54-8.04,3.2-11.99,4.97-3.95,1.78-7.84,3.68-11.67,5.69s-7.6,4.15-11.31,6.39-7.34,4.59-10.9,7.05c-3.56,2.46-7.05,5.03-10.45,7.7s-6.73,5.44-9.97,8.31c-3.24,2.88-6.39,5.84-9.45,8.9-3.06,3.06-6.03,6.22-8.9,9.46s-5.64,6.57-8.31,9.97c-2.67,3.41-5.23,6.9-7.69,10.46-2.46,3.56-4.81,7.2-7.05,10.9-2.24,3.71-4.37,7.48-6.38,11.31-2.02,3.83-3.91,7.72-5.69,11.67-1.78,3.95-3.44,7.94-4.97,11.99-1.54,4.05-2.95,8.14-4.24,12.27-1.29,4.14-2.45,8.3-3.49,12.51-1.04,4.2-1.95,8.43-2.73,12.69-.78,4.26-1.44,8.54-1.96,12.83-.53,4.3-.92,8.61-1.19,12.93s-.4,8.65-.4,12.98c0,4.33.13,8.66.38,12.98.26,4.32.65,8.63,1.17,12.93.52,4.3,1.16,8.58,1.94,12.83.78,4.26,1.68,8.49,2.71,12.7,1.03,4.21,2.19,8.38,3.47,12.52,1.28,4.14,2.69,8.22,4.22,12.28.35,2.49,1.08,4.87,2.18,7.14l178.32,363.66c.94,1.91,2.12,3.66,3.55,5.24,1.43,1.58,3.05,2.94,4.86,4.06,1.81,1.13,3.73,1.99,5.79,2.57,2.05.59,4.14.88,6.27.88s4.22-.29,6.27-.88c2.05-.58,3.97-1.44,5.79-2.57,1.81-1.13,3.43-2.48,4.85-4.06s2.61-3.33,3.55-5.24l178.32-363.66c1.13-2.26,1.86-4.64,2.18-7.14,1.53-4.05,2.94-8.14,4.22-12.28,1.28-4.14,2.44-8.31,3.47-12.52,1.03-4.2,1.94-8.44,2.71-12.7.78-4.26,1.42-8.54,1.94-12.83.52-4.3.91-8.61,1.16-12.93s.39-8.65.38-12.98c0-4.33-.14-8.66-.4-12.98s-.66-8.63-1.18-12.93c-.53-4.3-1.18-8.57-1.96-12.83s-1.69-8.49-2.73-12.69c-1.04-4.2-2.2-8.37-3.49-12.51s-2.7-8.22-4.24-12.27c-1.54-4.05-3.19-8.05-4.97-11.99-1.78-3.95-3.67-7.84-5.69-11.67-2.01-3.83-4.14-7.6-6.38-11.31-2.24-3.7-4.59-7.34-7.05-10.9-2.46-3.56-5.03-7.05-7.7-10.46-2.67-3.41-5.44-6.73-8.31-9.97s-5.83-6.4-8.9-9.46-6.21-6.03-9.45-8.9c-3.24-2.87-6.56-5.64-9.97-8.31-3.41-2.67-6.89-5.24-10.45-7.7-3.56-2.46-7.2-4.81-10.9-7.05s-7.47-4.37-11.31-6.39-7.72-3.91-11.67-5.69c-3.95-1.78-7.95-3.44-11.99-4.97s-8.14-2.95-12.27-4.24c-4.13-1.29-8.3-2.46-12.51-3.5-4.2-1.04-8.43-1.95-12.69-2.73-4.26-.79-8.54-1.44-12.83-1.97-4.3-.53-8.61-.92-12.93-1.19-4.32-.27-8.65-.4-12.98-.41h.21ZM748.22,707.72c-1.96,0-3.93-.05-5.9-.15-1.96-.09-3.92-.24-5.88-.43s-3.91-.43-5.85-.72c-1.94-.29-3.88-.63-5.81-1.01-1.93-.39-3.85-.82-5.76-1.29-1.91-.48-3.8-1.01-5.68-1.57-1.89-.57-3.75-1.19-5.6-1.85-1.85-.66-3.68-1.37-5.5-2.12-1.82-.76-3.61-1.55-5.39-2.39-1.78-.84-3.54-1.72-5.27-2.65-1.73-.93-3.44-1.9-5.13-2.91s-3.34-2.06-4.98-3.16-3.24-2.22-4.82-3.4-3.13-2.38-4.65-3.63c-1.52-1.25-3.01-2.54-4.46-3.85-1.46-1.32-2.88-2.68-4.27-4.07s-2.74-2.81-4.07-4.27-2.6-2.94-3.85-4.46c-1.24-1.52-2.45-3.07-3.63-4.65s-2.3-3.19-3.4-4.82-2.15-3.29-3.16-4.98-1.98-3.4-2.91-5.14c-.93-1.73-1.81-3.49-2.65-5.27-.84-1.78-1.64-3.57-2.39-5.39-.76-1.82-1.46-3.65-2.13-5.51-.66-1.85-1.28-3.71-1.85-5.6-.57-1.88-1.09-3.78-1.57-5.68-.47-1.91-.91-3.82-1.29-5.76-.38-1.93-.72-3.86-1.01-5.81-.29-1.95-.53-3.9-.72-5.85s-.34-3.92-.43-5.88c-.1-1.96-.15-3.93-.15-5.9s.05-3.93.15-5.9c.09-1.96.24-3.93.43-5.89.19-1.95.43-3.91.72-5.85.29-1.95.63-3.89,1.01-5.81.39-1.93.82-3.85,1.29-5.76.48-1.91,1.01-3.8,1.57-5.68.57-1.88,1.19-3.75,1.85-5.6.67-1.85,1.37-3.69,2.13-5.51.75-1.81,1.55-3.61,2.39-5.39.84-1.78,1.72-3.53,2.65-5.27s1.9-3.45,2.91-5.13c1.01-1.69,2.06-3.35,3.16-4.98s2.22-3.24,3.4-4.82c1.17-1.58,2.38-3.13,3.63-4.65,1.25-1.52,2.53-3.01,3.85-4.47s2.68-2.88,4.07-4.27,2.81-2.74,4.27-4.07c1.46-1.32,2.94-2.6,4.46-3.85,1.52-1.25,3.07-2.46,4.65-3.63s3.19-2.3,4.82-3.4,3.29-2.14,4.98-3.16c1.69-1.01,3.4-1.98,5.13-2.91,1.73-.93,3.49-1.81,5.27-2.65,1.78-.84,3.57-1.64,5.39-2.39,1.82-.75,3.65-1.46,5.5-2.12,1.85-.66,3.72-1.28,5.6-1.85,1.88-.57,3.78-1.1,5.68-1.57,1.91-.48,3.82-.91,5.76-1.29,1.93-.39,3.86-.72,5.81-1.01,1.95-.29,3.9-.53,5.85-.72s3.92-.33,5.88-.43c1.96-.09,3.93-.15,5.9-.15s3.93.05,5.9.15c1.96.1,3.93.24,5.88.43,1.96.19,3.91.44,5.85.72,1.95.29,3.89.63,5.81,1.01,1.93.38,3.84.81,5.76,1.29,1.91.47,3.8,1,5.68,1.57,1.88.57,3.75,1.19,5.6,1.85,1.85.66,3.69,1.37,5.51,2.12,1.81.76,3.61,1.55,5.39,2.39,1.78.84,3.53,1.72,5.27,2.65s3.44,1.9,5.13,2.91c1.69,1.02,3.35,2.06,4.98,3.16s3.24,2.22,4.82,3.4c1.58,1.17,3.13,2.38,4.65,3.63,1.52,1.24,3.01,2.53,4.47,3.85,1.45,1.32,2.88,2.68,4.27,4.07s2.74,2.81,4.07,4.27c1.32,1.46,2.6,2.95,3.85,4.47,1.25,1.52,2.46,3.07,3.63,4.65,1.17,1.58,2.3,3.19,3.4,4.82s2.14,3.3,3.16,4.98c1.01,1.68,1.98,3.4,2.91,5.13s1.81,3.49,2.65,5.27c.84,1.78,1.64,3.58,2.39,5.39.75,1.82,1.46,3.65,2.12,5.51.66,1.85,1.28,3.72,1.85,5.6.57,1.88,1.1,3.78,1.57,5.68.48,1.91.91,3.83,1.29,5.76.39,1.93.72,3.86,1.01,5.81.29,1.94.53,3.9.72,5.85.19,1.96.33,3.92.43,5.89.09,1.96.15,3.93.15,5.9s-.05,3.93-.15,5.9c-.09,1.96-.24,3.92-.43,5.88s-.43,3.91-.72,5.85c-.29,1.95-.63,3.89-1.01,5.81-.38,1.93-.81,3.85-1.29,5.76-.48,1.91-1.01,3.8-1.57,5.69-.57,1.88-1.19,3.74-1.85,5.6s-1.37,3.69-2.13,5.51c-.75,1.82-1.55,3.61-2.39,5.39-.84,1.78-1.72,3.54-2.65,5.27s-1.9,3.44-2.91,5.13c-1.02,1.69-2.06,3.35-3.16,4.98s-2.22,3.24-3.4,4.82c-1.17,1.58-2.38,3.13-3.63,4.65-1.24,1.52-2.53,3.01-3.85,4.47-1.32,1.46-2.68,2.88-4.07,4.27s-2.81,2.74-4.27,4.07-2.95,2.6-4.47,3.85c-1.52,1.24-3.07,2.46-4.65,3.63-1.58,1.17-3.19,2.3-4.82,3.4s-3.3,2.15-4.98,3.16-3.4,1.98-5.13,2.91-3.49,1.81-5.27,2.65c-1.78.84-3.57,1.64-5.39,2.39-1.82.76-3.65,1.46-5.51,2.13-1.85.66-3.72,1.28-5.6,1.85-1.88.57-3.78,1.1-5.68,1.57-1.91.48-3.83.91-5.76,1.3-1.93.38-3.87.72-5.81,1.01-1.95.29-3.9.53-5.85.72s-3.92.34-5.89.43c-1.96.1-3.93.15-5.9.15v-.03Z"/>
  </g>
</svg>