<?xml version="1.0" encoding="UTF-8"?>
<svg id="Capa_1" xmlns="http://www.w3.org/2000/svg" version="1.1" xmlns:xlink="http://www.w3.org/1999/xlink" viewBox="0 0 1504 1430.78">
  <!-- Generator: Adobe Illustrator 29.5.0, SVG Export Plug-In . SVG Version: 2.1.0 Build 137)  -->
  <defs>
    <style>
      .st0 {
        fill: #863c89;
      }

      .st1 {
        fill: #fff;
      }

      .st2 {
        fill: none;
      }

      .st3 {
        clip-path: url(#clippath-1);
      }

      .st4 {
        fill: #e54f46;
      }

      .st5 {
        clip-path: url(#clippath-2);
      }

      .st6 {
        clip-path: url(#clippath);
      }
    </style>
    <clipPath id="clippath">
      <rect class="st2" x="15.04" y="14.32" width="1479.3" height="1403.31"/>
    </clipPath>
    <clipPath id="clippath-1">
      <path class="st2" d="M45.03,14.32h1418.8c7.95,0,15.58,3.16,21.21,8.79s8.79,13.26,8.79,21.21v1343.32c0,7.95-3.16,15.58-8.79,21.21s-13.26,8.79-21.21,8.79H45.03c-7.95,0-15.58-3.16-21.21-8.79s-8.79-13.26-8.79-21.21V44.32c0-7.96,3.16-15.59,8.79-21.21s13.26-8.79,21.21-8.79Z"/>
    </clipPath>
    <clipPath id="clippath-2">
      <rect class="st2" x="221.49" y="197.6" width="1066.17" height="1066.07"/>
    </clipPath>
  </defs>
  <g class="st6">
    <g class="st3">
      <path class="st4" d="M15.04,14.32h1480.05v1403.31H15.04V14.32Z"/>
    </g>
  </g>
  <g class="st5">
    <path class="st0" d="M1287.42,730.46c0,8.72-.21,17.44-.64,26.15-.43,8.71-1.07,17.41-1.92,26.09-.86,8.68-1.92,17.33-3.2,25.96-1.28,8.63-2.77,17.22-4.47,25.78-1.7,8.55-3.61,17.06-5.73,25.52s-4.45,16.86-6.98,25.21c-2.53,8.35-5.27,16.63-8.2,24.84s-6.08,16.35-9.42,24.41c-3.33,8.06-6.87,16.03-10.6,23.91s-7.65,15.67-11.76,23.36-8.41,15.28-12.89,22.76-9.15,14.85-13.99,22.1c-4.85,7.26-9.87,14.38-15.06,21.39-5.2,7.01-10.56,13.88-16.09,20.63-5.53,6.74-11.23,13.34-17.08,19.81-5.86,6.46-11.87,12.78-18.04,18.94-6.17,6.17-12.48,12.18-18.94,18.04-6.46,5.86-13.06,11.55-19.81,17.09-6.74,5.53-13.61,10.9-20.62,16.09-7.01,5.2-14.14,10.22-21.39,15.06-7.26,4.85-14.62,9.51-22.1,13.99-7.48,4.48-15.07,8.78-22.76,12.9-7.69,4.11-15.48,8.03-23.36,11.76s-15.86,7.26-23.92,10.6-16.19,6.47-24.4,9.41c-8.21,2.94-16.49,5.68-24.84,8.21-8.35,2.53-16.75,4.85-25.21,6.97-8.46,2.12-16.96,4.03-25.52,5.73-8.55,1.7-17.15,3.19-25.77,4.47-8.63,1.28-17.28,2.35-25.96,3.2-8.68.85-17.38,1.49-26.08,1.93-8.71.43-17.43.64-26.15.64s-17.44-.21-26.15-.64c-8.71-.43-17.41-1.07-26.09-1.93-8.68-.85-17.33-1.92-25.96-3.2-8.63-1.28-17.22-2.77-25.78-4.47-8.55-1.7-17.06-3.61-25.52-5.73-8.46-2.12-16.86-4.44-25.21-6.97-8.35-2.53-16.63-5.27-24.84-8.21-8.21-2.94-16.35-6.07-24.41-9.41s-16.03-6.87-23.91-10.6-15.67-7.65-23.36-11.76c-7.69-4.11-15.28-8.41-22.76-12.9s-14.85-9.15-22.1-13.99c-7.26-4.84-14.38-9.86-21.39-15.06-7.01-5.19-13.88-10.56-20.63-16.09-6.74-5.53-13.34-11.22-19.81-17.08-6.46-5.86-12.78-11.87-18.94-18.04s-12.18-12.48-18.04-18.94c-5.86-6.46-11.55-13.07-17.08-19.81-5.54-6.74-10.9-13.62-16.09-20.63-5.2-7.01-10.22-14.13-15.06-21.39-4.85-7.25-9.51-14.62-13.99-22.1s-8.78-15.07-12.9-22.76c-4.11-7.69-8.03-15.48-11.76-23.36s-7.26-15.85-10.6-23.91-6.47-16.19-9.41-24.41c-2.94-8.21-5.68-16.49-8.21-24.84-2.53-8.34-4.85-16.75-6.97-25.21s-4.03-16.97-5.73-25.52c-1.7-8.56-3.19-17.15-4.47-25.78-1.28-8.63-2.35-17.28-3.2-25.96-.85-8.68-1.49-17.38-1.93-26.09-.43-8.71-.64-17.43-.64-26.15s.21-17.44.64-26.15c.43-8.71,1.07-17.41,1.93-26.09.85-8.68,1.92-17.33,3.2-25.96,1.28-8.63,2.77-17.22,4.47-25.77,1.7-8.55,3.61-17.06,5.73-25.52,2.12-8.46,4.44-16.86,6.97-25.21,2.53-8.34,5.27-16.63,8.21-24.83,2.94-8.21,6.07-16.35,9.41-24.41s6.87-16.03,10.6-23.92c3.73-7.88,7.65-15.67,11.76-23.36,4.11-7.69,8.41-15.28,12.9-22.76,4.48-7.48,9.15-14.85,13.99-22.1,4.84-7.25,9.86-14.38,15.06-21.39,5.19-7.01,10.56-13.88,16.09-20.62,5.53-6.74,11.22-13.34,17.08-19.81s11.87-12.78,18.04-18.94,12.48-12.18,18.94-18.04c6.46-5.86,13.07-11.55,19.81-17.09,6.74-5.53,13.62-10.9,20.63-16.09,7.01-5.19,14.13-10.21,21.39-15.06,7.25-4.84,14.62-9.51,22.1-13.99,7.48-4.48,15.07-8.79,22.76-12.9s15.48-8.03,23.36-11.76,15.85-7.26,23.91-10.6,16.19-6.48,24.41-9.42,16.49-5.67,24.84-8.2c8.34-2.53,16.75-4.86,25.21-6.98,8.46-2.12,16.97-4.03,25.52-5.73,8.56-1.7,17.15-3.19,25.78-4.47,8.63-1.28,17.28-2.34,25.96-3.2,8.68-.86,17.38-1.5,26.09-1.93s17.43-.64,26.15-.64,17.44.21,26.15.64c8.71.43,17.41,1.07,26.08,1.93,8.68.85,17.33,1.92,25.96,3.2,8.63,1.28,17.22,2.77,25.77,4.47,8.56,1.7,17.06,3.61,25.52,5.73,8.46,2.12,16.86,4.45,25.21,6.98,8.34,2.53,16.63,5.27,24.84,8.2,8.21,2.94,16.34,6.08,24.4,9.42s16.03,6.87,23.92,10.6,15.67,7.65,23.36,11.76,15.28,8.41,22.76,12.9c7.48,4.48,14.84,9.15,22.1,13.99,7.25,4.85,14.38,9.87,21.39,15.06,7.01,5.2,13.88,10.56,20.62,16.09,6.74,5.54,13.34,11.23,19.81,17.09,6.46,5.85,12.78,11.87,18.94,18.04,6.17,6.17,12.18,12.48,18.04,18.94,5.86,6.46,11.56,13.06,17.09,19.81,5.53,6.74,10.9,13.61,16.09,20.62,5.19,7.01,10.21,14.14,15.06,21.39,4.84,7.26,9.51,14.62,13.99,22.1,4.48,7.48,8.78,15.06,12.89,22.76s8.03,15.48,11.76,23.36c3.73,7.89,7.27,15.86,10.6,23.92,3.34,8.06,6.48,16.19,9.42,24.41,2.94,8.21,5.67,16.49,8.2,24.83,2.53,8.35,4.86,16.75,6.98,25.21,2.12,8.46,4.03,16.97,5.73,25.52s3.19,17.15,4.47,25.77c1.28,8.63,2.34,17.28,3.2,25.96.85,8.68,1.49,17.38,1.92,26.09.43,8.71.64,17.43.64,26.15Z"/>
  </g>
  <path class="st1" d="M436,627.36v320.92h636.97v-320.92l-318.48,208.05-318.48-208.05Z"/>
  <path class="st1" d="M436,494.95v57.36l318.48,207.44,318.48-207.44v-57.36H436Z"/>
</svg>